# xmcd
#
# Track frame offsets:
#	182
#	19700
#	38037
#	57500
#	85450
#	100200
#	114827
#	131637
#	150775
#
# Disc length: 2256 seconds
#
# Revision: 0
# Processed by: cddbd v1.4PL0 Copyright (c) Steve Scherf et al.
# Submitted via: dBpowerAMP V4.0
#
DISCID=6508ce09
DTITLE=Johnnie Taylor - Crazy 'bout You
DYEAR=1989
DGENRE=Blues
TTITLE0=Still Crazy
TTITLE1=Without You
TTITLE2=Dance Floor to the Back Door
TTITLE3=Money's Running Funny
TTITLE4=For Your Precious Love
TTITLE5=She's No Lady
TTITLE6=Airtight Alibi
TTITLE7=I Was Looking for Somebody
TTITLE8=Nothin' But the Blues
EXTD=
EXTT0=
EXTT1=
EXTT2=
EXTT3=
EXTT4=
EXTT5=
EXTT6=
EXTT7=
EXTT8=
PLAYORDER=
